<?xml version="1.0" encoding="utf-8"?>
<!-- Svg Vector Icons : http://www.onlinewebfonts.com/icon -->
<!DOCTYPE svg PUBLIC "-//W3C//DTD SVG 1.1//EN" "http://www.w3.org/Graphics/SVG/1.1/DTD/svg11.dtd">
<svg version="1.1" xmlns="http://www.w3.org/2000/svg" xmlns:xlink="http://www.w3.org/1999/xlink" x="0px" y="0px" viewBox="0 0 256 256" enable-background="new 0 0 256 256" xml:space="preserve">
<metadata> Svg Vector Icons : http://www.onlinewebfonts.com/icon </metadata>
<g><g><g><path fill="#cc0000" d="M57.6,10.9c-2.7,1.7-3.3,3.3-3.3,8.9v5h22.1h22.1v-5c0-5.6-0.6-7.2-3.3-8.9C93.8,10,92.8,10,76.4,10C59.9,10,59,10,57.6,10.9z"/><path fill="#cc0000" d="M140.4,10.3c-0.7,0.1-5.1,4.1-12,11l-10.9,10.8l-33,0.1l-33,0.1L50,33.6c-1.4,1.1-3,3.9-9.8,17.4l-8.1,16.1v79.1c0,54.9,0.1,79.4,0.5,80.3c0.7,1.9,16.4,17.6,18.6,18.6c1.8,0.8,4.7,0.9,76.7,0.9c72.3,0,75,0,76.7-0.9c2.5-1.2,17.5-16.3,18.4-18.6c0.6-1.5,0.7-9.9,0.7-72.4c0-38.9-0.1-71.4-0.3-72.1c-0.2-0.9-9.7-13.6-27.1-35.9c-23.1-29.7-27-34.5-28.6-35.3c-1.7-0.8-3.1-0.8-14.1-0.8C147.1,10.1,141.1,10.2,140.4,10.3z M157.2,32.6c1,0.2,2.5,1.1,3.4,1.9c2.7,2.3,39,46,40.2,48.3c0.9,1.7,1.1,2.6,0.9,5.1c-0.2,3.4-1,5.2-3.1,7.3c-2,2-3.8,2.9-6.6,3.1c-3.6,0.4-6.5-0.7-9.3-3.7c-4.5-4.6-37.8-44.8-38.8-46.8c-0.7-1.4-1.1-2.9-1.1-4.5C142.8,35.7,149.7,30.5,157.2,32.6z M73.1,70.2c0.6,0.5,1.6,1.5,2.1,2.2c1,1.2,1,1.3,1,70.3c0,69,0,69.1-1,70.3c-1.8,2.4-3.3,3.2-6.2,3.2c-2.9,0-4.4-0.7-6.2-3.2c-1-1.2-1-1.4-1.1-69.1c0-37.3,0-68.5,0.1-69.3c0.3-1.8,2.3-4.2,4.1-5C67.9,68.8,71.5,69.1,73.1,70.2z M116.9,114.3c0.8,0.6,2,1.7,2.5,2.4c1,1.3,1,1.3,1,48.3c0,46.9,0,47-1,48.3c-3.4,4.5-9,4.5-12.4,0c-1-1.3-1-1.3-1-48.3c0-46.9,0-47,1-48.3c1.6-2.2,3.8-3.4,6.2-3.4C114.7,113.3,115.9,113.6,116.9,114.3z M161.2,151.1c0.8,0.6,2,1.7,2.5,2.3c1,1.3,1,1.6,1,29.8c0,28.2,0,28.5-1,29.8c-3.4,4.5-9,4.5-12.4,0c-1-1.3-1-1.6-1-29.8c0-28.2,0-28.5,1-29.8c1.6-2.2,3.8-3.4,6.2-3.4C159,150.1,160.1,150.4,161.2,151.1z"/></g></g></g>
</svg>